# xmcd CD database file
#
# Track frame offsets:
#	150
#	12692
#	16369
#	38577
#	42588
#	60226
#	65183
#	78554
#	84901
#	96952
#	115534
#	120468
#	136443
#	142289
#	156969
#	165693
#	177494
#	183283
#	200872
#	203811
#	222493
#	224268
#	230555
#	238347
#	249304
#	254850
#	266718
#	269014
#
# Disc length: 3761 seconds
#
# Revision: 4
# Processed by: cddbd v1.5.2PL0 Copyright (c) Steve Scherf et al.
# Submitted via: CDex 1.51
#
DISCID=b70eaf1c
DTITLE=Telemann - Konzert Auf Schloss Wilhelmsthal (Siegfried Pank, Mitteldeutsche Barocksolisten)
DYEAR=1900
DGENRE=Classique
TTITLE0=Serenata Wilkommen, Schöner Freudentag - Chor - Wikommen, Schöner Freudentag
TTITLE1=Serenata Wilkommen, Schöner Freudentag - Rezitativ - Gottlob, die Wünche sind erfüllt
TTITLE2=Serenata Wilkommen, Schöner Freudentag - Arie - Friede, Glücke, Trost un Heil
TTITLE3=Serenata Wilkommen, Schöner Freudentag - Rezitativ - Der Spruch Besteht
TTITLE4=Serenata Wilkommen, Schöner Freudentag - Arie - Da wächst Segen, da blüht Freude
TTITLE5=Serenata Wilkommen, Schöner Freudentag - Rezitativ - Aus Goottes Gnaden lebet er
TTITLE6=Serenata Wilkommen, Schöner Freudentag - Arie - Daß doch nicht mit tausend Zungen
TTITLE7=Serenata Wilkommen, Schöner Freudentag - Rezitativ - Wir wissen zwar, du hochgepries'ner Fürst
TTITLE8=Serenata Wilkommen, Schöner Freudentag - Chor - Nun lebe, teurer Landesvater
TTITLE9=S. Ihr lieblichen Täler, annehmliche Felder - Chor - Ihr lieblichen Täler annehmlich Felder
TTITLE10=S. Ihr lieblichen Täler, annehmliche Felder - Rezitativ - Du weißt, mit was für seltnem Fleiß
TTITLE11=S. Ihr lieblichen Täler, annehmliche Felder - Arie - Dir, o Schönster zu Gefaller
TTITLE12=S. Ihr lieblichen Täler, annehmliche Felder - Rezitativ - Dir, Flora, sag ich Dank
TTITLE13=S. Ihr lieblichen Täler, annehmliche Felder - Dett - Unsre Freundschaft, unsre Bande
TTITLE14=S. Ihr lieblichen Täler, annehmliche Felder - Rezitativ - Wie, wollt ihr eure Bande ewig nennen
TTITLE15=S. Ihr lieblichen Täler, annehmliche Felder -  Arie - Verfahre doch, o Zeit, gelinder
TTITLE16=S. Ihr lieblichen Täler, annehmliche Felder - Rezitativ - Ich muß nur über eure Tortheit lachen
TTITLE17=S. Ihr lieblichen Täler, annehmliche Felder - Arie - Mir flüchtigeb Alten fällt zu Fuß
TTITLE18=S. Ihr lieblichen Täler, annehmliche Felder - Rezitativ - Uhr Nymphen geht
TTITLE19=S. Ihr lieblichen Täler, annehmliche Felder - Arie - Ich muß denn gezwungen scheiden
TTITLE20=S. Ihr lieblichen Täler, annehmliche Felder - Rezitativ - Ja, dort lässet sich der stolze sehen
TTITLE21=S. Ihr lieblichen Täler, annehmliche Felder - Coro - O Auszug von Vergnügen
TTITLE22=S. Ihr lieblichen Täler, annehmliche Felder - Rezitativ - Nimm denn von mir Kron und Zepter an
TTITLE23=S. Ihr lieblichen Täler, annehmliche Felder - Arie - Wehet sanft, erwärmte Lüfte
TTITLE24=S. Ihr lieblichen Täler, annehmliche Felder - Rezitativ - Ich freue mich, daß ihr bereit
TTITLE25=S. Ihr lieblichen Täler, annehmliche Felder - Trio - Es klopfet unsre frohe Brust
TTITLE26=S. Ihr lieblichen Täler, annehmliche Felder - Rezitativ - Soll ich nicht euer hohes Glück
TTITLE27=S. Ihr lieblichen Täler, annehmliche Felder - Tutti, Lebe lange, grüne, blühe
EXTD=
EXTT0=
EXTT1=
EXTT2=
EXTT3=
EXTT4=
EXTT5=
EXTT6=
EXTT7=
EXTT8=
EXTT9=
EXTT10=
EXTT11=
EXTT12=
EXTT13=
EXTT14=
EXTT15=
EXTT16=
EXTT17=
EXTT18=
EXTT19=
EXTT20=
EXTT21=
EXTT22=
EXTT23=
EXTT24=
EXTT25=
EXTT26=
EXTT27=
PLAYORDER=
